<svg width="16" height="16" viewBox="0 0 16 16" fill="none" xmlns="http://www.w3.org/2000/svg">
<path d="M8 0.25C12.2812 0.25 15.75 3.71875 15.75 8C15.75 12.2812 12.2812 15.75 8 15.75C3.71875 15.75 0.25 12.2812 0.25 8C0.25 3.71875 3.71875 0.25 8 0.25ZM7.09688 4.7375L9.45625 7H3.75C3.33437 7 3 7.33437 3 7.75V8.25C3 8.66563 3.33437 9 3.75 9H9.45625L7.09688 11.2625C6.79375 11.5531 6.7875 12.0375 7.08437 12.3344L7.42812 12.675C7.72187 12.9688 8.19688 12.9688 8.4875 12.675L12.6344 8.53125C12.9281 8.2375 12.9281 7.7625 12.6344 7.47188L8.4875 3.32188C8.19375 3.02813 7.71875 3.02813 7.42812 3.32188L7.08437 3.6625C6.7875 3.9625 6.79375 4.44688 7.09688 4.7375V4.7375Z" fill="#4381BF"/>
</svg>
